<?xml version="1.0" encoding="utf-8"?>
<svg xmlns="http://www.w3.org/2000/svg" viewBox="0 0 500 500">
  <g transform="matrix(1.468133, 0, 0, 1.498427, -192.001343, -83.484947)" style="">
    <g transform="matrix(0.189586, 0, 0, -0.185928, -850.138733, 1874.002563)" fill="#9265be" stroke="none" style="">
      <path d="M 5522.19 9532.44 L 5503.19 9525.44 L 5505.19 9377.44 C 5506.19 9296.44 5511.19 9223.44 5516.19 9216.44 L 5524.19 9203.44 L 5683.19 9205.44 C 5771.19 9206.44 5846.19 9203.44 5850.19 9199.44 C 5854.19 9196.44 5858.19 9094.44 5860.19 8974.44 L 5863.19 8757.44 L 5847.19 8740.44 L 5831.19 8724.44 L 5799.19 8724.44 C 5781.19 8725.44 5722.19 8729.44 5667.19 8733.44 L 5567.19 8741.44 L 5542.19 8732.44 C 5504.19 8718.44 5502.19 8709.44 5502.19 8563.44 L 5502.19 8426.44 L 5518.19 8413.44 L 5535.19 8399.44 L 6071.19 8398.44 L 6607.19 8396.44 L 6625.19 8411.44 L 6642.19 8427.44 L 6642.19 8565.44 L 6642.19 8703.44 L 6625.19 8720.44 L 6608.19 8737.44 L 6459.19 8730.44 L 6311.19 8722.44 L 6296.19 8734.44 L 6282.19 8746.44 L 6282.19 8968.44 L 6282.19 9190.44 L 6292.19 9200.44 L 6303.19 9211.44 L 6459.19 9206.44 L 6615.19 9201.44 L 6629.19 9220.44 L 6642.19 9238.44 L 6642.19 9381.44 L 6642.19 9525.44 L 6627.19 9530.44 C 6605.19 9539.44 5544.19 9540.44 5522.19 9532.44 Z"/>
    </g>
  </g>
</svg>