<svg version="1.0" xmlns="http://www.w3.org/2000/svg" viewBox="402 805 994 154" preserveAspectRatio="xMinYMid meet">
<g fill="#9265be">
    <path d="M424 826.2l-1.9.7.2 14.8c.1 8.1.6 15.4 1.1 16.1l.8 1.3 15.9-.2c8.8-.1 16.3.2 16.7.6.4.3.8 10.5 1 22.5l.3 21.7-1.6 1.7-1.6 1.6h-3.2c-1.8-.1-7.7-.5-13.2-.9l-10-.8-2.5.9c-3.8 1.4-4 2.3-4 16.9v13.7l1.6 1.3 1.7 1.4 53.6.1 53.6.2 1.8-1.5 1.7-1.6v-27.6l-1.7-1.7-1.7-1.7-14.9.7-14.8.8-1.5-1.2-1.4-1.2v-44.4l1-1 1.1-1.1 15.6.5 15.6.5 1.4-1.9 1.3-1.8V826.9l-1.5-.5c-2.2-.9-108.3-1-110.5-.2zM561.3 826.8l-1.3 1.3v109.5l1.2 1.2 1.2 1.2h38.5l.8-1.3c.4-.6.8-9.7.8-20.1v-18.9l16.5.2c9 .1 16.7.6 17 1.1.3.4.1 8.5-.4 18l-.8 17.1 1.8 2 1.7 1.9h37.4l1.5-1.8 1.5-1.7-.8-40c-.5-22-.6-46.6-.2-54.6l.6-14.6-1.1-.7c-.6-.4-9.7-.8-20.2-1l-19.1-.4-1.5 1.5-1.5 1.6.7 15.6c.4 8.6.8 15.8 1 16 .2.2-.1 1.1-.6 2.1l-.9 1.6-15.8-.2c-8.7-.2-16.2-.3-16.7-.4h-.9l.5-17.4c.3-9.6.2-18-.3-18.7l-.8-1.3-19.2-.1h-19.2l-1.4 1.3zM701.4 825.9c-3.1.6-3.4 1.9-3.4 17.7v15.1l2.4 1.1 2.4 1.1 5.4-.5c2.9-.2 10.4-.6 16.6-.7l11.3-.4.6 1c.4.6.5 18 .4 38.7l-.2 37.7 1.6 1.7 1.6 1.6h37.8l1.1-1.9 1-2-.7-37.4-.6-37.5 1.9-.9 1.9-1 16.5.8 16.5.7 2.3-1.4 2.2-1.4v-29.8l-1.4-1.1-1.4-1.2-56.9-.2c-31.3-.1-57.8 0-58.9.2zM843.9 826.2l-1.9.7v14.8c0 8.1.4 15.4.9 16.1l.8 1.4 15.4-.2c8.5-.1 16-.2 16.7-.1l1.2.1-.2 23.7-.3 23.8-7.5-.1c-4.1 0-11.5-.2-16.3-.4l-8.8-.3-1.2 1.2-1.2 1.2-.3 13.9-.3 13.9 1 2 1.1 2 54.5-.1h54.6l1.4-1.5 1.5-1.4V910l-2.1-2.1-2.1-2.1-15.4.7-15.4.7-.1-1.3c-.3-5.4.1-46.2.6-46.8l.5-.9 15.6.6 15.7.5 1.4-1.8 1.3-1.9V826.9l-1.5-.5c-2.2-.9-107.3-1-109.6-.2zM976.9 826.2c-1 .4-1.9 1.3-1.9 2-.1.7-.1 25.5-.1 55.1v53.9l1.2 1.4 1.1 1.4h33.5l1.6-1.8 1.5-1.7-1-23c-.5-12.7-1.4-23.8-2-24.9l-1-1.8 1-1 1.1-1.1 2.5.7c1.4.3 2.6 1.1 2.6 1.8 0 .6 1.1 3.4 2.4 6.2 1.3 2.8 3.4 7.3 4.6 10.1 1.2 2.7 2.9 5.8 3.8 6.7l1.5 1.8h17.6l2-2.6c1.2-1.5 2.1-3 2.1-3.5s1.6-4.2 3.5-8.3c1.9-4.1 3.5-8.1 3.5-8.8 0-.7.7-2.1 1.5-3.1l1.3-1.9 1.9.4 1.8.3-.1 5c-.1 2.8-.4 8.1-.7 12-.2 3.8-.8 13.2-1.2 20.8l-.8 13.7 1.8 2 1.8 2h32.5l1.1-1.4 1.2-1.5.4-50.3c.2-27.7.6-51.8 1-53.5l.7-3.3-1.5-2.3-1.5-2.3-18.3.1c-10.1 0-18.9.3-19.4.7-1 .6-3.6 5.5-15.6 30.1l-6.2 12.8-1.6-.3c-.8-.2-3.2-3.5-5.3-7.3-4.9-9.2-13.8-27.4-13.8-28.3 0-.4-1.3-2.2-2.8-4l-2.8-3.4-17.3-.1c-9.5-.1-18.1.1-19.2.5zm93.9 51c2.5 4.6 1.8 6.6-1.4 3.9-2.4-1.9-3.9-5.5-2.9-7.1 1.1-1.7 1.9-1.1 4.3 3.2zM1155 825.8c-5.2.5-6.7 2.5-10.1 13.6-1.7 5.6-4.9 15.3-7.1 21.6-2.1 6.3-4.3 12.8-4.8 14.5-1.3 4.4-6.5 18.8-7.2 20-.3.5-.9 2.6-1.3 4.5s-1.3 4.8-2 6.5c-.7 1.6-2.1 5-3 7.5-1 2.5-2.1 5.4-2.6 6.5-1.8 4.3-4.1 11.1-4.6 13.8l-.5 2.7 1.2 1.5 1.2 1.5h34.6l2.1-1.8 2.2-1.7 2.3-7 2.4-7 20.4-.3 20.5-.2 1.9 7.1 1.8 7.1 2.5 1.9 2.4 1.9h34.4l1.7-1.9 1.8-2-.7-2.3c-.3-1.3-1.9-5.5-3.4-9.3-1.6-3.9-3.4-8.6-4-10.5-3.7-10.4-10.3-29.9-11.1-32.5-.5-1.7-2.5-7.5-4.5-13s-4-11.4-4.4-13c-.4-1.7-1.3-4-1.9-5.2-.7-1.2-1.2-3-1.2-3.9 0-1.9-5.8-18.4-6.9-19.7-.7-.7-45.4-1.5-52.1-.9zm26.5 35.7c.4 2.4 1.3 5 2.1 5.6.8.6 1.4 2.1 1.4 3.3 0 1.2 1.2 5.1 2.6 8.7 1.4 3.5 2.9 7.6 3.4 9.2l.9 2.7-1.7.9c-.9.4-6.6.7-12.5.6l-10.9-.3-1-1-1.1-1.1 2.3-5.3c1.3-2.9 3.6-9.3 5.2-14.1 2.9-9.1 5.4-13.6 7.5-13.7h1.2l.6 4.5zM1273.3 825.8c-2.8.4-2.5-6.9-2.4 57.1l.1 54.4 1.1 1.3 1.1 1.3h99.6l1.6-1.8 1.7-1.8-.3-14.4-.3-14.4-2.5-1.1-2.5-1.1-26.9.9-26.8 1-1.2-1.4-1.2-1.3.7-38.5.7-38.5-.9-1-1-1h-19.2c-10.6 0-20.2.1-21.4.3z"/>
    </g>
    </svg>